<svg width="145" height="19" viewBox="0 0 145 19" fill="none" xmlns="http://www.w3.org/2000/svg">
<path d="M0 17.777H33.133V13.007H0V17.777ZM0 5.973H6.629V1.207H0V5.973ZM13.254 5.973H19.883V1.207H13.253L13.254 5.973ZM26.508 5.973H33.133V1.207H26.508V5.973ZM15.996 11.875H0V7.109H15.996V11.875ZM33.133 11.875H17.137V7.109H33.133V11.875ZM58.195 17.219C60.387 17.145 60.871 16.73 60.871 15.832V3.23C60.871 2.332 60.387 1.895 58.195 1.82V1.285H65.859V1.82C63.668 1.895 63.184 2.332 63.184 3.23V15.832C63.184 16.73 63.668 17.145 65.859 17.219V17.777H58.195V17.219ZM71.016 17.219C73.18 17.145 73.836 16.73 73.836 15.832V1.965H72.62C70.577 1.965 69.53 1.98 68.339 4.973L67.804 4.922L67.948 1.285H82.007L82.179 4.922L81.644 4.972C80.55 2.172 79.479 1.965 77.362 1.965H76.12V15.832C76.12 16.73 76.78 17.145 78.944 17.219V17.777H71.014V17.219H71.016ZM114.684 17.219C116.797 17.145 117.336 16.73 117.336 15.832V3.23C117.336 2.332 116.796 1.895 114.684 1.82V1.285H128.063L128.133 4.918L127.598 4.941C126.578 1.996 125.75 1.992 122.977 1.992H119.645V8.875H121.129C123.051 8.875 123.902 8.438 124.535 5.832H125.02V12.598H124.535C123.902 9.992 123.051 9.578 121.129 9.578H119.645V16.938H122.977C126.238 16.938 127.332 17.023 128.402 13.91L128.938 13.937L128.816 17.777H114.684V17.219ZM131.418 17.219C133.535 17.145 134.07 16.73 134.07 15.832V3.23C134.07 2.332 133.535 1.895 131.418 1.82V1.285H138.91V1.82C136.746 1.895 136.379 2.309 136.379 3.23V16.937H138.813C142.023 16.937 143.168 15.977 144.336 12.426L144.871 12.449L144.676 17.777H131.418V17.219ZM104.363 16.965H102.563V1.965H104.34C108.766 1.965 110.957 3.887 110.957 9.387C110.957 14.785 109.543 16.965 104.363 16.965ZM104.605 1.285H98.004V1.844C99.774 1.961 100.254 2.394 100.254 3.23V15.832C100.254 16.668 99.774 17.082 98.004 17.192V17.777H104.828C110.957 17.777 113.605 13.664 113.605 9.238C113.605 4.618 110.566 1.285 104.605 1.285ZM85.828 10.82L88.504 3.937H88.602L90.984 10.82H85.828ZM94.949 15.004L89.793 0.893997H88.969L83.906 13.566C82.934 15.976 82.254 16.875 80.621 17.266V17.777H86.098V17.266C83.93 16.902 83.688 16.367 84.711 13.715L85.563 11.5H91.23L92.543 15.297C93.027 16.66 92.687 17.145 90.473 17.266V17.777H97.328V17.191C95.863 16.921 95.461 16.379 94.949 15.004ZM50.61 1.555C47.738 1.555 45.063 4.082 45.063 9.629C45.063 14.906 48.273 17.094 51.07 17.094C51.9225 17.0843 52.7597 16.8656 53.508 16.457C54.262 16.043 54.949 15.477 55.438 14.762C55.781 14.262 56.028 13.754 56.246 13.141L56.786 13.305C56.512 14.184 56.133 15.043 55.574 15.781C55.0379 16.493 54.3494 17.0762 53.559 17.488C53.3331 17.6019 53.1007 17.7024 52.863 17.789C52.5996 17.8851 52.3296 17.962 52.055 18.019C51.5157 18.1328 50.9661 18.1904 50.415 18.191C45.719 18.191 42.41 14.809 42.41 9.727C42.41 4.691 46.133 0.894997 50.875 0.894997C52.602 0.894997 53.988 1.359 55.012 1.918L55.863 1.906L56.039 3.5L56.371 6.27H55.863C54.743 3.254 53.067 1.555 50.61 1.555Z" fill="#EBDFC3"/>
</svg>
