<svg width="52" height="29" viewBox="0 0 52 29" fill="none" xmlns="http://www.w3.org/2000/svg">
<path d="M51.4 0H8.44999C8.02999 0.027 7.63399 0.2 7.32999 0.49C5.05999 2.68 2.83999 4.93 0.589986 7.13C0.389168 7.3141 0.231988 7.54071 0.129915 7.79329C0.0278427 8.04588 -0.0165471 8.31807 -1.44241e-05 8.59V28.85H43.04C43.4311 28.8325 43.8033 28.6766 44.09 28.41C46.4115 26.1484 48.7149 23.8683 51 21.57C51.274 21.252 51.43 20.85 51.44 20.43V0.88C51.47 0.6 51.43 0.33 51.4 0ZM18.56 21.18H15.45V16.65H11.07V21.18H7.88999V7.7H11.07V13.78H15.45V7.7H18.57L18.56 21.18ZM29.56 21.18L26.47 16.55H24.15V21.18H21V7.7H30.16C30.58 7.689 30.988 7.84 31.3 8.12C31.593 8.37 31.76 8.735 31.76 9.12V15.12C31.7585 15.3098 31.7167 15.497 31.6374 15.6694C31.5581 15.8418 31.4431 15.9954 31.3 16.12C30.9878 16.4008 30.5797 16.5511 30.16 16.54L33.24 21.17L29.56 21.18ZM43.58 10.54H40.46V21.18H37.29V10.54H34.17V7.7H43.58V10.54Z" fill="#EBDFC3"/>
<path d="M24.15 10.57H28.56V13.69H24.15V10.57Z" fill="#EBDFC3"/>
</svg>
