<svg width="414" height="162" viewBox="0 0 414 162" fill="none" xmlns="http://www.w3.org/2000/svg">
<path d="M247.644 67.736C251.099 67.736 253.694 66.28 255.47 64.28V56.344C249.109 56.736 242.907 58.344 242.907 63.58C242.907 66.048 244.817 67.736 247.644 67.736ZM255.47 50.108V46.5C255.47 43.408 253.694 41.564 249.793 41.564C245.892 41.564 241.752 43.188 236.697 45.644L232.716 37.328C238.225 34.564 244.658 32.64 250.259 32.64C262.046 32.64 266.648 38.408 266.648 46.876V64.124C266.648 66.344 267.958 67.36 270.024 67.36V75.124C262.281 75.124 259.06 73.968 256.76 70.044C253.324 73.736 249.499 75.812 243.981 75.812C236.776 75.812 231.721 71.436 231.721 64.892C231.721 55.876 240.216 51.188 255.47 50.108ZM276.958 33.56H287.531L288.06 38.328C291.062 35.188 295.417 32.564 300.56 32.564C309.756 32.564 313.657 38.252 313.657 47.58V74.892H302.399V47.264C302.399 43.564 300.859 41.032 297.033 41.032C293.582 41.032 290.596 42.796 288.14 45.872V74.892H276.958M212.382 21.016V56.892C212.382 62.42 209.691 65.58 205.026 65.58C201.881 65.58 199.429 64.032 197.502 61.42L189.819 68.408C193.784 73.22 199.146 75.828 205.631 75.828C216.813 75.828 223.95 69.436 223.95 57.108V21.016M211.168 109.876C205.288 108.376 200.205 107.076 200.205 102.688C200.205 99.032 203.688 96.564 208.867 96.564C213.731 96.564 218.739 97.764 223.373 100.016L227.401 91.408C221.072 88.436 214.822 86.984 208.322 86.984C196.797 86.984 188.744 93.516 188.744 102.844C188.744 114.704 198.402 117.22 206.936 119.452C212.907 121.012 218.071 122.36 218.071 126.86C218.071 130.796 214.635 133.14 208.867 133.14C203.875 133.14 198.262 131.452 193.004 128.36L187.797 136.952C193.517 140.472 201.773 142.72 208.943 142.72C221.649 142.72 229.547 136.58 229.547 126.704C229.547 114.532 219.36 111.952 211.168 109.876ZM238.611 108.452H232.099V100.452H238.611V90.14H249.873V100.452H259.076V108.452H249.873V129.012C249.873 132.08 251.023 133.624 253.635 133.624C255.705 133.624 257.615 132.936 259.216 131.784L263.356 138.544C259.907 141.21 255.685 142.671 251.334 142.704C242.747 142.704 238.611 138.484 238.611 129.236M268.467 100.452H278.809L279.569 106.844C282.714 101.296 286.615 99.296 291.297 99.296C293.208 99.296 294.967 99.608 296.352 100.14L294.732 110.452C292.967 109.816 291.102 109.505 289.227 109.532C285.015 109.532 282.181 112.156 279.649 116.92V141.78H268.467M388.639 108.452H382.122V100.452H388.639V90.14H399.896V100.452H409.104V108.452H399.896V129.012C399.896 132.08 401.051 133.624 403.642 133.624C405.712 133.624 407.623 132.936 409.243 131.784L413.379 138.544C409.93 141.21 405.709 142.671 401.357 142.704C392.775 142.704 388.639 138.484 388.639 129.236M341.303 40.624C346.669 40.624 348.66 44.624 348.66 49.86H332.036C333.111 43.86 336.701 40.624 341.303 40.624ZM340.993 32.468C329.58 32.468 320.388 40.628 320.388 53.876C320.388 67.716 328.975 75.796 341.072 75.796C347.135 75.8076 353.051 73.9293 358.007 70.42L353.325 63.252C349.89 65.408 346.048 66.796 341.912 66.796C336.236 66.796 332.999 63.876 332.02 58H358.548C358.846 56.236 359.296 54.392 359.296 51.328C359.296 40.236 352.796 32.468 340.993 32.468ZM360.897 107.532C366.247 107.532 368.237 111.532 368.237 116.764H351.613C352.688 110.764 356.295 107.532 360.897 107.532ZM360.586 99.372C349.173 99.372 339.966 107.532 339.966 120.78C339.966 134.624 348.552 142.72 360.666 142.72C366.792 142.72 372.528 140.86 377.584 137.328L372.918 130.156C369.463 132.316 365.642 133.704 361.502 133.704C355.809 133.704 352.577 130.784 351.613 124.904H378.125C378.436 123.144 378.89 121.296 378.89 118.236C378.89 107.14 372.373 99.372 360.586 99.372ZM317.884 107.532C323.25 107.532 325.241 111.532 325.241 116.764H308.617C309.692 110.764 313.298 107.532 317.884 107.532ZM317.59 99.372C306.177 99.372 296.969 107.532 296.969 120.78C296.969 134.624 305.556 142.72 317.653 142.72C323.796 142.72 329.532 140.86 334.604 137.328L329.922 130.156C326.471 132.316 322.645 133.704 318.509 133.704C312.817 133.704 309.584 130.784 308.601 124.904H335.133C335.444 123.144 335.889 121.296 335.889 118.236C335.889 107.156 329.377 99.372 317.59 99.372ZM25.7954 112.936C36.8221 131.844 57.2833 144.548 80.6265 144.484C115.538 144.376 143.869 115.764 143.773 80.672C143.682 45.58 115.192 17.112 80.2682 17.204C45.3569 17.296 17.0257 45.936 17.1213 81.016C17.141 85.2038 17.5676 89.3796 18.3951 93.484C18.5185 94 19.048 94.284 19.5496 94.156L28.363 91.956C28.4871 91.9286 28.6046 91.8767 28.7087 91.8035C28.8128 91.7302 28.9014 91.637 28.9695 91.5292C29.0376 91.4214 29.0838 91.3011 29.1054 91.1752C29.127 91.0494 29.1236 90.9205 29.0954 90.796H29.1074C28.4837 87.5628 28.1665 84.2774 28.16 80.984C28.0803 52.016 51.4714 28.376 80.3001 28.296C109.145 28.216 132.671 51.736 132.735 80.704C132.826 109.672 109.423 133.312 80.5947 133.392C61.4989 133.436 44.7359 123.14 35.5801 107.764C35.4573 107.538 35.2539 107.368 35.0108 107.287C34.7677 107.206 34.5031 107.221 34.2704 107.328L26.2014 111.608C25.9726 111.73 25.8014 111.939 25.7253 112.188C25.6492 112.437 25.6744 112.706 25.7954 112.936Z" fill="#EBDFC3"/>
<path d="M113.778 94.592L121.82 98.92C122.297 99.172 122.934 99.032 123.125 98.516C125.407 93.0414 126.601 87.1712 126.64 81.236C126.855 55.64 106.298 34.656 80.8295 34.436H80.4394C55.1854 34.436 34.4735 55.076 34.2545 80.452C34.0555 106.048 54.5963 127.048 80.0652 127.252L80.4553 127.264C92.521 127.264 103.532 122.544 111.788 114.86C112.194 114.5 112.27 113.876 111.895 113.468L105.041 107.252C104.635 106.892 104.029 106.972 103.671 107.312L103.655 107.296C97.2653 113.011 89.0097 116.169 80.4553 116.172H80.1608C60.7704 116 45.1419 100.032 45.2972 80.548C45.4524 61.236 61.2203 45.516 80.4394 45.516H80.7499C100.124 45.688 115.769 61.672 115.598 81.14C115.565 85.2833 114.802 89.388 113.344 93.264C113.237 93.4996 113.222 93.7673 113.302 94.0135C113.383 94.2598 113.553 94.4664 113.778 94.592Z" fill="#EBDFC3"/>
<path d="M126.967 14.908C126.529 14.608 125.94 14.688 125.645 15.14L120.478 22.64C120.179 23.08 120.227 23.688 120.665 24C138.34 36.672 149.912 57.42 149.896 80.86C149.896 119.328 118.75 150.608 80.4673 150.608C42.1842 150.608 11.0347 119.312 11.0347 80.828C11.0347 42.376 42.1842 11.08 80.4832 11.092C88.5757 11.0855 96.6064 12.5085 104.209 15.296C104.446 15.3814 104.708 15.3707 104.938 15.2663C105.168 15.1618 105.349 14.9718 105.443 14.736L108.691 6.17203C108.776 5.93928 108.768 5.68267 108.669 5.45549C108.571 5.22831 108.389 5.04801 108.161 4.95203C99.3013 1.66793 89.931 -0.00878143 80.4872 3.45851e-05C36.1056 -0.0159654 0.0159231 36.252 0 80.84C0 125.42 36.1056 161.704 80.4713 161.704C124.833 161.704 160.943 125.436 160.943 80.86C160.943 53.66 147.507 29.564 126.967 14.908Z" fill="#EBDFC3"/>
</svg>
