<svg width="268" height="220" viewBox="0 0 268 220" fill="none" xmlns="http://www.w3.org/2000/svg">
<path d="M56.0772 0.476504V32.634H53.5262C52.7207 26.4447 51.2438 21.5336 49.1293 17.9008C47.0147 14.2679 43.9939 11.3414 40.0668 9.18861C36.1397 7.03581 32.0783 5.95944 27.8827 5.95944C23.1501 5.95944 19.223 7.4395 16.1351 10.3323C13.0471 13.2252 11.4696 16.5552 11.4696 20.2217C11.4696 23.0809 12.4429 25.6374 14.4233 27.9584C17.2763 31.3894 23.9557 35.9641 34.5957 41.6825C43.2554 46.3581 49.1628 49.9237 52.3515 52.4129C55.5066 54.9021 57.9568 57.8285 59.6686 61.2259C61.3804 64.6233 62.2531 68.1216 62.2531 71.8554C62.2531 78.8856 59.5343 84.9404 54.0968 90.0533C48.6593 95.1326 41.6443 97.689 33.0517 97.689C30.3665 97.689 27.8156 97.4872 25.4661 97.0499C24.0564 96.8481 21.1362 96.0071 16.6721 94.5607C12.2416 93.1143 9.42212 92.4079 8.24736 92.4079C7.07259 92.4079 6.19991 92.7443 5.52862 93.4507C4.85732 94.1234 4.35384 95.5698 4.05176 97.7226H1.5344V65.8343H4.05176C5.22653 72.4945 6.83764 77.4728 8.85152 80.803C10.8654 84.1331 13.9198 86.8577 18.0483 89.0778C22.1767 91.2978 26.708 92.3406 31.6084 92.3406C37.3145 92.3406 41.8121 90.827 45.1015 87.7996C48.3908 84.8058 50.0355 81.2066 50.0355 77.1364C50.0355 74.8491 49.3978 72.5618 48.1559 70.2408C46.914 67.9198 44.9672 65.7333 42.3156 63.7487C40.5367 62.3696 35.7033 59.4767 27.7485 55.0366C19.8272 50.5964 14.1883 47.0309 10.8318 44.3735C7.47536 41.7161 4.92444 38.7897 3.21264 35.5941C1.50084 32.3985 0.628163 28.8666 0.628163 25.0655C0.628163 18.4053 3.17908 12.6533 8.28093 7.84313C13.4499 2.99933 19.9279 0.577413 27.8492 0.577413C32.7832 0.577413 37.9858 1.78837 43.5239 4.21027C46.0749 5.35395 47.8874 5.92577 48.9279 5.92577C50.1027 5.92577 51.076 5.5894 51.8145 4.88301C52.5864 4.17662 53.157 2.7302 53.6269 0.611032H56.1779L56.0772 0.476504Z" fill="#EBDFC3"/>
<path d="M145.662 0.476193L147.776 32.0618H145.662C142.809 22.6097 138.781 15.8149 133.545 11.6439C128.309 7.47283 121.998 5.42091 114.681 5.42091C108.505 5.42091 102.967 7.00188 97.9996 10.0965C93.032 13.2248 89.1385 18.2368 86.2519 25.0652C83.3989 31.9273 81.9892 40.4376 81.9892 50.6298C81.9892 59.0392 83.3318 66.3385 86.017 72.4942C88.7022 78.6498 92.7635 83.3927 98.1674 86.6555C103.571 89.9184 109.747 91.6003 116.662 91.6003C122.67 91.6003 128.006 90.2884 132.605 87.732C137.203 85.1755 142.272 80.029 147.776 72.326L149.924 73.7051C145.259 81.98 139.855 88.0011 133.645 91.8694C127.436 95.7041 120.085 97.6214 111.56 97.6214C96.1871 97.6214 84.3052 91.903 75.8468 80.4999C69.5367 71.9896 66.4151 61.9993 66.4151 50.4616C66.4151 41.1776 68.4961 32.6673 72.6246 24.897C76.7531 17.1268 82.4591 11.1057 89.7427 6.83369C97.0262 2.56172 104.981 0.442574 113.574 0.442574C120.287 0.442574 126.865 2.09082 133.41 5.3873C135.324 6.39642 136.666 6.90097 137.505 6.90097C138.714 6.90097 139.788 6.46369 140.728 5.58911C141.902 4.37816 142.741 2.62901 143.278 0.442574H145.729L145.662 0.476193Z" fill="#EBDFC3"/>
<path d="M203.661 95.5359L167.814 17.3286V79.4235C167.814 85.1419 168.452 88.7075 169.66 90.0866C171.339 92.0039 174.024 92.9458 177.649 92.9458H180.905V95.5022H148.649V92.9458H151.905C155.832 92.9458 158.618 91.7685 160.229 89.3802C161.236 87.9002 161.705 84.5701 161.705 79.3899V18.6741C161.705 14.5703 161.236 11.6102 160.329 9.76013C159.692 8.44827 158.517 7.30463 156.805 6.43005C155.093 5.55548 152.341 5.11819 148.548 5.11819V2.59537H174.796L208.428 75.3197L241.59 2.59537H267.837V5.11819H264.615C260.655 5.11819 257.869 6.2955 256.19 8.68376C255.183 10.1638 254.68 13.4939 254.68 18.6741V79.3899C254.68 85.1083 255.318 88.6738 256.593 90.053C258.271 91.9703 260.957 92.9121 264.582 92.9121H267.804V95.4686H228.399V92.9121H231.688C235.649 92.9121 238.435 91.7348 240.012 89.3466C241.019 87.8665 241.523 84.5364 241.523 79.3562V17.2613L205.743 95.4686H203.494L203.661 95.5359Z" fill="#EBDFC3"/>
<path d="M20.2971 113.196V123.321H19.4916C19.2566 121.37 18.7867 119.856 18.0818 118.679C17.4441 117.535 16.4707 116.627 15.2288 115.954C13.9869 115.281 12.7115 114.911 11.4025 114.911C9.92561 114.911 8.68369 115.382 7.71031 116.257C6.73694 117.165 6.23348 118.208 6.23348 119.385C6.23348 120.293 6.53555 121.1 7.13972 121.84C8.04597 122.883 10.127 124.363 13.4835 126.146C16.2022 127.626 18.0818 128.736 19.0552 129.543C20.0622 130.317 20.8006 131.259 21.3376 132.302C21.8411 133.344 22.1432 134.455 22.1432 135.665C22.1432 137.852 21.2705 139.769 19.5587 141.384C17.8469 142.998 15.6652 143.772 12.9464 143.772C12.1073 143.772 11.3018 143.705 10.5633 143.57C10.127 143.503 9.22075 143.234 7.81103 142.763C6.40131 142.326 5.52861 142.09 5.12584 142.09C4.72306 142.09 4.48811 142.157 4.28672 142.427C4.08533 142.628 3.91751 143.066 3.81681 143.738H3.01127V133.714H3.81681C4.18603 135.834 4.68949 137.381 5.32722 138.424C5.96495 139.466 6.90476 140.307 8.21379 141.014C9.52282 141.687 10.9326 142.057 12.4765 142.057C14.2555 142.057 15.6987 141.586 16.7392 140.61C17.7798 139.702 18.2832 138.558 18.2832 137.246C18.2832 136.54 18.0818 135.8 17.6791 135.094C17.2763 134.387 16.6386 133.681 15.833 133.042C15.2624 132.604 13.752 131.696 11.2346 130.283C8.75083 128.871 6.97191 127.761 5.89784 126.92C4.85733 126.079 4.01819 125.171 3.51472 124.161C2.94412 123.152 2.70917 122.042 2.70917 120.831C2.70917 118.712 3.51473 116.929 5.12584 115.449C6.73695 113.936 8.7844 113.162 11.2682 113.162C12.8122 113.162 14.4569 113.532 16.2022 114.306C17.0078 114.676 17.5448 114.81 17.914 114.81C18.2832 114.81 18.5853 114.676 18.8203 114.474C19.0552 114.272 19.2566 113.801 19.3909 113.162L20.1629 113.229L20.2971 113.196Z" fill="#EBDFC3"/>
<path d="M62.6559 113.868L62.958 120.73H62.1524C61.9846 119.519 61.7832 118.645 61.5147 118.14C61.0783 117.299 60.4741 116.66 59.7693 116.29C58.9973 115.887 58.0575 115.685 56.8492 115.685H52.7543V138.054C52.7543 139.836 52.9556 140.98 53.3584 141.417C53.929 142.057 54.7681 142.326 55.8758 142.326H56.9163V143.133H44.5644V142.326H45.6049C46.8468 142.326 47.7195 141.956 48.223 141.216C48.5251 140.745 48.6929 139.702 48.6929 138.087V115.718H45.1686C43.826 115.718 42.8526 115.786 42.2485 116.021C41.4765 116.29 40.8387 116.828 40.3353 117.602C39.8318 118.376 39.4961 119.452 39.3619 120.73H38.5563L38.892 113.868H62.7565H62.6559Z" fill="#EBDFC3"/>
<path d="M85.8491 115.483V127.021H92.26C93.9383 127.021 95.0459 126.785 95.6165 126.247C96.3885 125.608 96.7577 124.397 96.8584 122.715H97.664V132.907H96.8584C96.657 131.461 96.4556 130.586 96.2542 130.183C96.0192 129.678 95.5829 129.274 94.9788 129.005C94.3746 128.736 93.5019 128.568 92.26 128.568H85.8491V138.188C85.8491 139.5 85.9163 140.274 86.0505 140.543C86.1848 140.812 86.3526 141.047 86.6547 141.182C86.9232 141.35 87.4938 141.417 88.2994 141.417H93.2334C94.8781 141.417 96.0864 141.283 96.8248 141.081C97.5633 140.879 98.3017 140.408 98.973 139.736C99.8792 138.827 100.752 137.482 101.692 135.699H102.564L100.047 143.032H77.5586V142.258H78.5991C79.2704 142.258 79.9082 142.09 80.5459 141.754C81.0158 141.552 81.3179 141.148 81.4522 140.711C81.62 140.24 81.6871 139.298 81.6871 137.886V118.88C81.6871 116.997 81.4857 115.887 81.1165 115.449C80.613 114.877 79.7739 114.575 78.532 114.575H77.4915V113.767H99.9799L100.282 120.159H99.4429C99.1408 118.611 98.8051 117.568 98.4359 116.997C98.0667 116.425 97.5297 115.954 96.8248 115.685C96.2542 115.483 95.2473 115.382 93.804 115.382C93.8711 115.449 85.8155 115.449 85.8155 115.449L85.8491 115.483Z" fill="#EBDFC3"/>
<path d="M147.373 113.868V114.676C146.333 114.877 145.594 115.18 145.057 115.685C144.285 116.391 143.614 117.434 143.043 118.914L132.873 143.806H132.068L121.126 118.611C120.555 117.299 120.152 116.526 119.951 116.257C119.615 115.819 119.145 115.449 118.642 115.214C118.138 114.978 117.4 114.81 116.527 114.709V113.902H128.443V114.709C127.1 114.844 126.194 115.079 125.825 115.382C125.422 115.718 125.221 116.156 125.221 116.66C125.221 117.367 125.556 118.51 126.228 120.024L133.645 137.179L140.526 120.226C141.197 118.578 141.567 117.4 141.567 116.761C141.567 116.358 141.365 115.954 140.929 115.55C140.526 115.18 139.821 114.911 138.814 114.743C138.747 114.743 138.613 114.743 138.445 114.676V113.868H147.474H147.373Z" fill="#EBDFC3"/>
<path d="M169.694 115.483V127.021H176.105C177.783 127.021 178.891 126.785 179.461 126.247C180.233 125.608 180.602 124.397 180.703 122.715H181.475V132.907H180.703C180.502 131.461 180.3 130.586 180.065 130.183C179.83 129.678 179.394 129.274 178.79 129.005C178.186 128.736 177.313 128.568 176.071 128.568H169.66V138.188C169.66 139.5 169.728 140.274 169.862 140.543C169.996 140.812 170.164 141.047 170.466 141.182C170.734 141.35 171.305 141.417 172.111 141.417H177.045C178.689 141.417 179.898 141.283 180.636 141.081C181.374 140.879 182.113 140.408 182.784 139.736C183.69 138.827 184.563 137.482 185.503 135.699H186.376L183.858 143.032H161.37V142.258H162.41C163.082 142.258 163.719 142.09 164.357 141.754C164.827 141.552 165.129 141.148 165.263 140.711C165.431 140.24 165.498 139.298 165.498 137.886V118.88C165.498 116.997 165.297 115.887 164.928 115.449C164.424 114.877 163.585 114.575 162.343 114.575H161.303V113.767H183.791L184.093 120.159H183.254C182.952 118.611 182.616 117.568 182.247 116.997C181.878 116.425 181.341 115.954 180.636 115.685C180.065 115.483 179.059 115.382 177.615 115.382C177.682 115.449 169.66 115.449 169.66 115.449L169.694 115.483Z" fill="#EBDFC3"/>
<path d="M199.365 113.868H207.253L225.109 135.8V118.948C225.109 117.165 224.908 116.021 224.505 115.584C224.002 114.978 223.163 114.676 221.988 114.676H220.947V113.868H231.117V114.676H230.077C228.835 114.676 227.962 115.046 227.459 115.786C227.157 116.257 226.989 117.299 226.989 118.914V143.57H226.217L206.951 120.024V138.054C206.951 139.836 207.152 140.98 207.555 141.417C208.126 142.057 208.965 142.326 210.072 142.326H211.113V143.133H200.943V142.326H201.983C203.225 142.326 204.131 141.956 204.601 141.216C204.903 140.745 205.071 139.702 205.071 138.087V117.737C204.232 116.728 203.594 116.088 203.158 115.786C202.722 115.483 202.084 115.147 201.245 114.911C200.842 114.777 200.204 114.709 199.365 114.709V113.868Z" fill="#EBDFC3"/>
<path d="M264.548 113.196V123.32H263.742C263.508 121.37 263.038 119.856 262.333 118.679C261.695 117.535 260.722 116.627 259.48 115.954C258.238 115.281 256.962 114.911 255.653 114.911C254.177 114.911 252.935 115.382 251.961 116.257C250.988 117.165 250.484 118.208 250.484 119.385C250.484 120.293 250.786 121.1 251.391 121.84C252.297 122.883 254.378 124.363 257.734 126.146C260.453 127.626 262.333 128.736 263.306 129.543C264.313 130.317 265.051 131.259 265.589 132.302C266.092 133.344 266.394 134.455 266.394 135.665C266.394 137.852 265.521 139.769 263.81 141.384C262.098 142.998 259.916 143.772 257.197 143.772C256.358 143.772 255.553 143.705 254.814 143.57C254.378 143.503 253.472 143.234 252.062 142.763C250.652 142.326 249.78 142.09 249.377 142.09C249.041 142.09 248.739 142.157 248.538 142.427C248.336 142.628 248.168 143.066 248.068 143.738H247.262V133.714H248.068C248.437 135.834 248.94 137.381 249.578 138.424C250.216 139.466 251.189 140.307 252.465 141.014C253.774 141.687 255.183 142.057 256.727 142.057C258.506 142.057 259.95 141.586 260.99 140.61C262.031 139.702 262.534 138.558 262.534 137.246C262.534 136.54 262.333 135.8 261.93 135.094C261.527 134.387 260.889 133.681 260.084 133.042C259.513 132.604 258.003 131.696 255.486 130.283C253.002 128.871 251.223 127.761 250.149 126.92C249.075 126.079 248.269 125.171 247.766 124.161C247.195 123.152 246.96 122.042 246.96 120.831C246.96 118.712 247.766 116.929 249.377 115.449C250.988 113.936 253.035 113.162 255.519 113.162C257.063 113.162 258.708 113.532 260.453 114.306C261.259 114.676 261.796 114.81 262.165 114.81C262.534 114.81 262.836 114.676 263.071 114.474C263.306 114.272 263.508 113.801 263.642 113.162L264.447 113.229L264.548 113.196Z" fill="#EBDFC3"/>
<path d="M28.252 155.613L28.9568 166.141H28.252C27.3457 163.013 25.9696 160.759 24.2242 159.346C22.4788 157.933 20.3978 157.261 17.914 157.261C15.8665 157.261 14.0205 157.765 12.3758 158.808C10.7312 159.851 9.42212 161.533 8.4823 163.753C7.50892 166.04 7.03902 168.866 7.03902 172.263C7.03902 175.055 7.47536 177.511 8.34804 179.562C9.25429 181.614 10.5969 183.195 12.3758 184.272C14.1548 185.348 16.2022 185.92 18.5517 185.92C20.5656 185.92 22.3446 185.483 23.855 184.642C25.3654 183.767 27.0772 182.052 28.9232 179.529L29.6281 180C28.0841 182.758 26.2716 184.743 24.1906 186.054C22.1096 187.333 19.6594 187.972 16.8399 187.972C11.7381 187.972 7.74389 186.088 4.92444 182.253C2.80986 179.428 1.80292 176.098 1.80292 172.263C1.80292 169.202 2.4742 166.343 3.88392 163.753C5.29364 161.163 7.13972 159.144 9.58995 157.732C12.0402 156.319 14.6582 155.579 17.5112 155.579C19.7601 155.579 21.9418 156.151 24.1235 157.227C24.7612 157.564 25.1976 157.732 25.4661 157.732C25.8689 157.732 26.2381 157.563 26.5401 157.294C26.9429 156.891 27.2114 156.285 27.3793 155.579H28.252V155.613Z" fill="#EBDFC3"/>
<path d="M65.2404 176.905H53.2913L51.1767 181.783C50.6732 182.993 50.4047 183.902 50.4047 184.507C50.4047 184.978 50.6061 185.415 51.076 185.752C51.5459 186.122 52.5193 186.357 53.9961 186.425V187.265H44.2624V186.425C45.5714 186.223 46.4105 185.92 46.7797 185.516C47.5517 184.743 48.4244 183.33 49.3642 181.076L60.2392 155.613H61.0448L71.8191 181.345C72.6917 183.431 73.4638 184.776 74.1686 185.382C74.8735 186.021 75.8804 186.357 77.1223 186.425V187.265H64.9383V186.425C66.1802 186.357 67.0193 186.155 67.4556 185.785C67.892 185.449 68.0934 185.012 68.0934 184.507C68.0934 183.868 67.7913 182.758 67.1871 181.345L65.2404 176.905ZM64.5691 175.223L59.333 162.71L53.9626 175.223H64.5691Z" fill="#EBDFC3"/>
<path d="M99.7114 172.801V181.816C99.7114 183.767 99.9128 184.978 100.349 185.449C100.953 186.122 101.826 186.458 102.967 186.458H104.142V187.299H90.9174V186.458H92.0586C93.3676 186.458 94.3074 186.021 94.8445 185.18C95.1466 184.709 95.3144 183.599 95.3144 181.816V161.802C95.3144 159.851 95.113 158.64 94.6766 158.169C94.0725 157.496 93.1998 157.16 92.0586 157.16H90.9174V156.319H102.229C104.981 156.319 107.163 156.588 108.774 157.193C110.351 157.765 111.728 158.707 112.802 160.086C113.876 161.465 114.446 163.046 114.446 164.896C114.446 167.419 113.607 169.438 111.963 171.052C110.284 172.633 107.968 173.407 104.948 173.407C104.176 173.407 103.404 173.34 102.531 173.239C101.625 173.138 100.685 173.003 99.6778 172.768L99.7114 172.801ZM99.7114 171.489C100.517 171.658 101.222 171.759 101.86 171.826C102.497 171.893 103.001 171.96 103.471 171.96C105.048 171.96 106.424 171.321 107.566 170.11C108.707 168.866 109.277 167.285 109.277 165.367C109.277 164.056 109.009 162.777 108.472 161.634C107.901 160.49 107.163 159.615 106.156 159.044C105.149 158.472 104.008 158.169 102.732 158.169C101.96 158.169 100.987 158.337 99.745 158.606V171.456L99.7114 171.489Z" fill="#EBDFC3"/>
<path d="M143.111 186.425V187.265H129.886V186.425H130.96C132.236 186.425 133.142 186.054 133.746 185.314C134.115 184.81 134.317 183.666 134.317 181.783V161.768C134.317 160.221 134.25 159.178 134.015 158.64C133.847 158.27 133.545 157.934 133.108 157.631C132.437 157.261 131.766 157.059 130.994 157.059H129.92V156.218H143.144V157.059H142.037C140.761 157.059 139.888 157.429 139.284 158.169C138.915 158.674 138.714 159.817 138.714 161.701V181.715C138.714 183.263 138.781 184.305 138.982 184.844C139.15 185.214 139.452 185.55 139.956 185.853C140.593 186.223 141.265 186.425 142.037 186.425H143.111Z" fill="#EBDFC3"/>
<path d="M183.858 156.319L184.194 163.585H183.321C183.153 162.306 182.918 161.398 182.65 160.86C182.18 159.985 181.576 159.346 180.77 158.909C179.998 158.505 178.991 158.27 177.649 158.27H173.319V181.917C173.319 183.801 173.52 184.978 173.957 185.483C174.561 186.122 175.434 186.458 176.642 186.458H177.716V187.299H164.592V186.425H165.666C166.975 186.425 167.915 186.021 168.452 185.247C168.788 184.743 168.956 183.666 168.956 181.917V158.27H165.23C163.787 158.27 162.78 158.337 162.175 158.573C161.403 158.842 160.699 159.414 160.162 160.255C159.591 161.062 159.255 162.172 159.155 163.585H158.282L158.651 156.319H183.858Z" fill="#EBDFC3"/>
<path d="M215.476 176.905H203.527L201.413 181.783C200.909 182.993 200.641 183.902 200.641 184.507C200.641 184.978 200.842 185.415 201.312 185.752C201.782 186.122 202.755 186.357 204.232 186.425V187.265H194.498V186.425C195.807 186.223 196.613 185.92 197.016 185.516C197.788 184.743 198.66 183.33 199.6 181.076L210.475 155.613H211.281L222.055 181.345C222.928 183.431 223.7 184.776 224.405 185.382C225.109 186.021 226.116 186.357 227.358 186.425V187.265H215.174V186.425C216.416 186.357 217.255 186.155 217.658 185.785C218.094 185.449 218.296 185.012 218.296 184.507C218.296 183.868 217.994 182.758 217.389 181.345L215.476 176.905ZM214.839 175.223L209.602 162.71L204.232 175.223H214.839Z" fill="#EBDFC3"/>
<path d="M267.2 178.722L267.972 178.89L265.354 187.265H241.422V186.425H242.563C243.872 186.425 244.812 185.987 245.383 185.146C245.685 184.642 245.852 183.532 245.852 181.749V161.768C245.852 159.851 245.651 158.64 245.215 158.135C244.611 157.463 243.738 157.126 242.53 157.126H241.388V156.285H255.385V157.126C253.74 157.126 252.599 157.294 251.961 157.597C251.323 157.9 250.854 158.304 250.619 158.808C250.384 159.313 250.249 160.456 250.249 162.273V181.749C250.249 183.027 250.384 183.902 250.619 184.339C250.82 184.642 251.089 184.911 251.458 185.045C251.827 185.214 253.002 185.247 255.016 185.247H257.298C259.648 185.247 261.326 185.045 262.299 184.743C263.273 184.406 264.145 183.767 264.917 182.859C265.689 181.984 266.428 180.605 267.233 178.688L267.2 178.722Z" fill="#EBDFC3"/>
<path d="M12.1073 219.255L4.62235 202.873V215.891C4.62235 217.102 4.75661 217.842 4.99156 218.145C5.32721 218.548 5.89781 218.75 6.6698 218.75H7.34111V219.255H0.594583V218.75H1.26587C2.10499 218.75 2.6756 218.515 3.01125 217.977C3.21264 217.674 3.31332 216.967 3.31332 215.857V203.142C3.31332 202.268 3.24619 201.662 3.0448 201.259C2.91054 200.99 2.6756 200.754 2.27282 200.586C1.90361 200.384 1.36656 200.317 0.527439 200.317V199.745H6.03206L13.0471 215.016L19.995 199.745H25.4996V200.25H24.8284C23.9892 200.25 23.3851 200.485 23.083 201.023C22.8816 201.326 22.7809 202.032 22.7809 203.142V215.857C22.7809 217.068 22.9151 217.808 23.1837 218.111C23.5193 218.515 24.0899 218.717 24.8619 218.717H25.5332V219.221H17.2763V218.717H17.9476C18.7867 218.717 19.3908 218.481 19.6929 217.943C19.8943 217.64 19.995 216.934 19.995 215.824V202.84L12.5101 219.221H12.1409L12.1073 219.255Z" fill="#EBDFC3"/>
<path d="M45.7728 212.763H38.2207L36.9117 215.824C36.6096 216.597 36.4082 217.136 36.4082 217.539C36.4082 217.842 36.576 218.111 36.8445 218.313C37.113 218.515 37.7508 218.683 38.6906 218.75V219.255H32.5818V218.75C33.3874 218.582 33.8908 218.414 34.1594 218.178C34.6628 217.707 35.1999 216.766 35.7705 215.386L42.6177 199.375H43.1212L49.8677 215.588C50.4383 216.9 50.9082 217.741 51.3445 218.145C51.7809 218.515 52.385 218.75 53.2242 218.784V219.288H45.5714V218.717C46.3434 218.717 46.8804 218.548 47.1489 218.347C47.4174 218.145 47.5517 217.842 47.5517 217.539C47.5517 217.102 47.3503 216.463 46.9811 215.555L45.7728 212.763ZM45.4036 211.686L42.1478 203.815L38.7577 211.686H45.4036Z" fill="#EBDFC3"/>
<path d="M59.333 199.812H64.6026L76.4845 214.411V203.176C76.4845 201.965 76.3503 201.225 76.0818 200.922C75.7461 200.519 75.1755 200.317 74.4035 200.317H73.7322V199.745H80.4787V200.25H79.7739C78.9348 200.25 78.3642 200.485 78.0285 201.023C77.8271 201.326 77.7265 202.032 77.7265 203.142V219.524H77.223L64.4348 203.815V215.79C64.4348 217.001 64.5691 217.741 64.804 218.044C65.1732 218.447 65.7103 218.649 66.4822 218.649H67.1536V219.154H60.407V218.649H61.0783C61.9174 218.649 62.5216 218.414 62.8237 217.876C63.0251 217.573 63.1258 216.866 63.1258 215.756V202.201C62.5552 201.561 62.1188 201.124 61.8503 200.889C61.5818 200.653 61.1454 200.485 60.5748 200.283C60.3063 200.216 59.87 200.149 59.2994 200.149V199.678L59.333 199.812Z" fill="#EBDFC3"/>
<path d="M100.517 212.763H92.9649L91.6558 215.824C91.3202 216.597 91.1524 217.136 91.1524 217.539C91.1524 217.842 91.3202 218.111 91.5887 218.313C91.8572 218.515 92.4949 218.683 93.4348 218.75V219.255H87.2924V218.75C88.098 218.582 88.6014 218.414 88.8699 218.178C89.3734 217.707 89.9104 216.766 90.481 215.386L97.3283 199.375H97.8317L104.578 215.588C105.149 216.9 105.619 217.741 106.055 218.145C106.491 218.515 107.096 218.75 107.935 218.784V219.288H100.282V218.717C101.054 218.717 101.591 218.548 101.86 218.347C102.128 218.145 102.262 217.842 102.262 217.539C102.262 217.102 102.061 216.463 101.692 215.555L100.517 212.763ZM100.114 211.686L96.8584 203.815L93.4684 211.686H100.114Z" fill="#EBDFC3"/>
<path d="M132.471 199.375L132.974 205.531H132.471C131.967 204.017 131.329 202.84 130.524 202.1C129.383 200.99 127.906 200.418 126.06 200.418C123.576 200.418 121.663 201.427 120.421 203.378C119.347 205.026 118.81 207.011 118.81 209.298C118.81 211.182 119.179 212.864 119.884 214.377C120.589 215.891 121.528 217.001 122.703 217.741C123.844 218.447 125.053 218.817 126.261 218.817C126.966 218.817 127.704 218.75 128.342 218.548C129.013 218.347 129.651 218.111 130.255 217.741V212.124C130.255 211.148 130.188 210.509 130.054 210.206C129.92 209.904 129.685 209.702 129.383 209.533C129.081 209.365 128.51 209.298 127.738 209.298V208.726H135.29V209.298H134.921C134.149 209.298 133.645 209.533 133.41 210.072C133.209 210.408 133.142 211.114 133.142 212.157V218.111C132.068 218.717 130.994 219.154 129.886 219.423C128.846 219.692 127.604 219.827 126.328 219.827C122.569 219.827 119.716 218.616 117.769 216.227C116.292 214.445 115.588 212.359 115.588 209.937C115.588 208.222 115.99 206.573 116.829 204.992C117.803 203.109 119.145 201.73 120.824 200.687C122.267 199.846 123.945 199.442 125.892 199.442C126.597 199.442 127.235 199.51 127.805 199.644C128.409 199.711 129.215 200.014 130.255 200.418C130.759 200.62 131.162 200.72 131.329 200.72C131.497 200.72 131.665 200.653 131.799 200.485C131.934 200.283 132.001 199.98 132.034 199.476L132.504 199.409L132.471 199.375Z" fill="#EBDFC3"/>
<path d="M147.944 200.855V208.558H152.207C153.314 208.558 154.086 208.356 154.456 208.053C154.959 207.616 155.228 206.843 155.295 205.732H155.798V212.494H155.295C155.16 211.585 155.026 210.946 154.892 210.644C154.69 210.307 154.422 210.038 154.053 209.87C153.65 209.668 153.046 209.601 152.274 209.601H148.011V215.992C148.011 216.867 148.011 217.405 148.145 217.573C148.213 217.775 148.347 217.909 148.548 218.01C148.75 218.145 149.119 218.178 149.622 218.178H152.878C153.952 218.178 154.758 218.111 155.261 217.977C155.765 217.842 156.235 217.506 156.704 217.068C157.309 216.463 157.913 215.588 158.55 214.377H159.121L157.443 219.255H142.473V218.75H143.144C143.614 218.75 144.05 218.616 144.453 218.414C144.755 218.246 144.957 218.044 145.091 217.741C145.225 217.438 145.292 216.833 145.292 215.857V203.243C145.292 201.999 145.158 201.259 144.923 200.956C144.587 200.586 144.017 200.35 143.178 200.35H142.506V199.846H157.476L157.678 204.118H157.107C156.906 203.075 156.671 202.369 156.469 201.999C156.234 201.629 155.865 201.326 155.395 201.124C155.026 200.956 154.355 200.922 153.381 200.922H148.011L147.944 200.855Z" fill="#EBDFC3"/>
<path d="M177.917 219.255L170.432 202.873V215.891C170.432 217.102 170.567 217.842 170.835 218.145C171.171 218.548 171.741 218.75 172.513 218.75H173.185V219.255H166.438V218.75H167.109C167.949 218.75 168.519 218.515 168.855 217.977C169.056 217.674 169.157 216.967 169.157 215.857V203.142C169.157 202.268 169.09 201.662 168.888 201.259C168.754 200.99 168.519 200.754 168.116 200.586C167.747 200.384 167.21 200.317 166.371 200.317V199.745H171.876L178.891 215.016L185.839 199.745H191.343V200.25H190.672C189.833 200.25 189.229 200.485 188.927 201.023C188.725 201.326 188.625 202.032 188.625 203.142V215.857C188.625 217.068 188.759 217.808 189.027 218.111C189.363 218.515 189.934 218.717 190.705 218.717H191.377V219.221H183.12V218.717H183.791C184.63 218.717 185.234 218.481 185.537 217.943C185.738 217.64 185.839 216.934 185.839 215.824V202.84L178.354 219.221H177.917V219.255Z" fill="#EBDFC3"/>
<path d="M204.266 200.855V208.558H208.528C209.636 208.558 210.408 208.356 210.777 208.053C211.281 207.616 211.549 206.843 211.616 205.732H212.12V212.494H211.616C211.482 211.585 211.348 210.946 211.214 210.644C211.046 210.307 210.744 210.038 210.374 209.87C209.972 209.668 209.368 209.601 208.596 209.601H204.333V215.992C204.333 216.867 204.333 217.405 204.4 217.573C204.467 217.775 204.601 217.909 204.803 218.01C205.004 218.145 205.373 218.178 205.877 218.178H209.133C210.207 218.178 211.012 218.111 211.516 217.977C212.019 217.842 212.523 217.506 212.959 217.068C213.563 216.463 214.167 215.588 214.805 214.377H215.409L213.731 219.255H198.761V218.75H199.432C199.902 218.75 200.339 218.616 200.741 218.414C201.043 218.246 201.245 218.044 201.379 217.741C201.513 217.438 201.547 216.833 201.547 215.857V203.243C201.547 201.999 201.413 201.259 201.178 200.956C200.842 200.586 200.271 200.35 199.432 200.35H198.761V199.846H213.731L213.932 204.118H213.362C213.16 203.075 212.925 202.369 212.69 201.999C212.455 201.629 212.086 201.326 211.616 201.124C211.247 200.956 210.576 200.922 209.602 200.922H204.299L204.266 200.855Z" fill="#EBDFC3"/>
<path d="M221.854 199.812H227.123L239.005 214.411V203.176C239.005 201.965 238.837 201.225 238.602 200.922C238.267 200.519 237.696 200.317 236.924 200.317H236.253V199.745H242.999V200.25H242.328C241.523 200.25 240.918 200.485 240.583 201.023C240.381 201.326 240.281 202.032 240.281 203.142V219.524H239.777L226.989 203.815V215.79C226.989 217.001 227.123 217.741 227.358 218.044C227.727 218.447 228.265 218.649 229.037 218.649H229.708V219.154H222.961V218.649H223.633C224.472 218.649 225.076 218.414 225.378 217.876C225.579 217.573 225.68 216.866 225.68 215.756V202.201C225.109 201.561 224.673 201.124 224.405 200.889C224.102 200.687 223.7 200.485 223.129 200.283C222.861 200.216 222.458 200.149 221.854 200.149V199.678V199.812Z" fill="#EBDFC3"/>
<path d="M266.595 199.812L266.797 204.353H266.226C266.159 203.546 265.991 202.941 265.79 202.604C265.521 202.032 265.119 201.629 264.615 201.36C264.112 201.124 263.474 200.956 262.668 200.956H259.95V215.824C259.95 217.035 260.084 217.775 260.352 218.077C260.722 218.481 261.259 218.683 262.031 218.683H262.702V219.187H254.445V218.717H255.116C255.922 218.717 256.526 218.481 256.862 217.943C257.063 217.64 257.164 216.934 257.164 215.824V200.956H254.848C253.942 200.956 253.304 201.023 252.935 201.158C252.431 201.36 252.028 201.662 251.659 202.201C251.29 202.705 251.089 203.411 251.021 204.32H250.518L250.719 199.779H266.595V199.812Z" fill="#EBDFC3"/>
</svg>
